<?xml version="1.0" standalone="no"?><!DOCTYPE svg PUBLIC "-//W3C//DTD SVG 1.1//EN" "http://www.w3.org/Graphics/SVG/1.1/DTD/svg11.dtd"><svg t="1694768168374" class="icon" viewBox="0 0 1024 1024" version="1.1" xmlns="http://www.w3.org/2000/svg" p-id="5253" xmlns:xlink="http://www.w3.org/1999/xlink" width="200" height="200"><path d="M512 512m-512 0a512 512 0 1 0 1024 0 512 512 0 1 0-1024 0Z" fill="#7CB2D5" p-id="5254"></path><path d="M221.866667 221.866667m34.133333 0l512 0q34.133333 0 34.133333 34.133333l0 529.066667q0 34.133333-34.133333 34.133333l-512 0q-34.133333 0-34.133333-34.133333l0-529.066667q0-34.133333 34.133333-34.133333Z" fill="#F7B64D" p-id="5255"></path><path d="M238.933333 204.8m34.133334 0l477.866666 0q34.133333 0 34.133334 34.133333l0 529.066667q0 34.133333-34.133334 34.133333l-477.866666 0q-34.133333 0-34.133334-34.133333l0-529.066667q0-34.133333 34.133334-34.133333Z" fill="#FFD782" p-id="5256"></path><path d="M273.066667 256h477.866666v512H273.066667z" fill="#FFFFFF" p-id="5257"></path><path d="M408.746667 343.688533L365.8752 386.56 342.186667 362.871467a6.1952 6.1952 0 0 1 0-8.942934c2.56-2.56 6.4-2.56 8.96 0l14.728533 14.711467 33.911467-33.911467c2.56-2.56 6.4-2.56 8.96 0 2.56 2.56 2.56 6.382933 0 8.96zM375.466667 307.2C347.306667 307.2 324.266667 330.24 324.266667 358.4s23.04 51.2 51.2 51.2 51.2-23.04 51.2-51.2-23.04-51.2-51.2-51.2zM408.746667 497.288533L365.8752 540.16 342.186667 516.471467a6.1952 6.1952 0 0 1 0-8.942934c2.56-2.56 6.4-2.56 8.96 0l14.728533 14.711467 33.911467-33.911467c2.56-2.56 6.4-2.56 8.96 0 2.56 2.56 2.56 6.382933 0 8.96zM375.466667 460.8c-28.16 0-51.2 23.04-51.2 51.2s23.04 51.2 51.2 51.2 51.2-23.04 51.2-51.2-23.04-51.2-51.2-51.2zM408.746667 650.888533L365.8752 693.76 342.186667 670.071467a6.1952 6.1952 0 0 1 0-8.942934c2.56-2.56 6.4-2.56 8.96 0l14.728533 14.711467 33.911467-33.911467c2.56-2.56 6.4-2.56 8.96 0 2.56 2.56 2.56 6.382933 0 8.96zM375.466667 614.4c-28.16 0-51.2 23.04-51.2 51.2s23.04 51.2 51.2 51.2 51.2-23.04 51.2-51.2-23.04-51.2-51.2-51.2z" fill="#48E065" p-id="5258"></path><path d="M469.333333 324.266667h136.533334a8.533333 8.533333 0 1 1 0 17.066666h-136.533334a8.533333 8.533333 0 1 1 0-17.066666z m0 51.2h187.733334a8.533333 8.533333 0 1 1 0 17.066666h-187.733334a8.533333 8.533333 0 1 1 0-17.066666zM469.333333 477.866667h136.533334a8.533333 8.533333 0 1 1 0 17.066666h-136.533334a8.533333 8.533333 0 1 1 0-17.066666z m0 51.2h187.733334a8.533333 8.533333 0 1 1 0 17.066666h-187.733334a8.533333 8.533333 0 1 1 0-17.066666zM469.333333 648.533333h136.533334a8.533333 8.533333 0 1 1 0 17.066667h-136.533334a8.533333 8.533333 0 1 1 0-17.066667z m0 51.2h187.733334a8.533333 8.533333 0 1 1 0 17.066667h-187.733334a8.533333 8.533333 0 1 1 0-17.066667z" fill="#EAEAEF" p-id="5259"></path></svg>